<svg width="166" height="78" viewBox="0 0 166 78" fill="none" xmlns="http://www.w3.org/2000/svg">
<path d="M39.0256 52.24C39.0256 52.24 38.9756 52.23 38.9256 52.22C38.8356 52.22 38.7556 52.21 38.6656 52.21C36.1456 52.24 33.8856 53.29 32.2656 54.97C32.4356 56.07 32.7956 57.1 33.3256 58.03C33.3856 57.94 33.4556 57.85 33.5156 57.76C33.5956 57.64 33.6856 57.52 33.7656 57.4C33.9456 57.16 34.1256 56.92 34.3156 56.69C34.4156 56.56 34.5256 56.44 34.6256 56.31C34.7356 56.18 34.8356 56.06 34.9456 55.93C35.0856 55.77 35.2157 55.62 35.3557 55.47C35.4957 55.32 35.6356 55.17 35.7756 55.03C35.8956 54.91 36.0056 54.79 36.1256 54.68C36.2056 54.6 36.2956 54.52 36.3756 54.44C36.5656 54.26 36.7556 54.09 36.9356 53.92C37.0056 53.86 37.0756 53.79 37.1456 53.73C37.2556 53.64 37.3556 53.55 37.4556 53.46C37.5256 53.4 37.5856 53.35 37.6556 53.29C37.8056 53.17 37.9356 53.06 38.0656 52.96C38.1356 52.91 38.1956 52.85 38.2556 52.81C38.3256 52.76 38.3856 52.71 38.4456 52.66C38.5156 52.61 38.5756 52.57 38.6256 52.52C38.6856 52.48 38.7356 52.44 38.7856 52.4C38.8456 52.36 38.8856 52.33 38.9256 52.3C38.9556 52.28 38.9656 52.27 38.9856 52.26C39.0156 52.24 39.0356 52.23 39.0356 52.23C39.0356 52.23 39.0356 52.23 39.0056 52.23L39.0256 52.24Z" fill="url(#paint0_linear_9122_4897)"/>
<path d="M37.5453 27.86C37.7053 27.48 37.8952 27.11 38.1152 26.75C38.2452 26.38 38.3953 26.03 38.5453 25.7C37.3853 23.46 35.9353 21.4 34.2253 19.56C34.2253 19.56 34.2352 19.56 34.2452 19.55C34.1152 19.41 33.9853 19.28 33.8553 19.15C33.7453 19.04 33.6453 18.93 33.5353 18.82C28.9053 14.14 23.5252 10.76 20.5052 1.11C20.2552 0.160001 19.6752 0 19.6752 0C19.1552 0.24 18.1152 0.630005 18.1152 0.630005C16.8252 1.47 15.6453 2.46 14.5853 3.58C13.2953 4.88 12.2152 6.38001 11.3652 8.04001C16.4152 13.33 21.6753 15.08 26.6953 17.83C26.8453 17.91 26.9853 17.99 27.1353 18.08C27.3153 18.18 27.4853 18.27 27.6653 18.38C27.6653 18.38 27.6553 18.39 27.6453 18.4C31.9253 20.93 35.5753 24.51 38.1553 28.86C37.9553 28.53 37.7553 28.19 37.5453 27.87V27.86Z" fill="url(#paint1_linear_9122_4897)"/>
<path d="M41.6053 37.57C41.6053 37.57 41.6053 37.56 41.6053 37.55C40.9053 34.43 39.7453 31.53 38.1953 28.9C39.7453 31.53 40.9153 34.43 41.6053 37.56V37.57Z" fill="url(#paint2_linear_9122_4897)"/>
<path d="M27.6357 18.39C27.6357 18.39 27.6457 18.38 27.6557 18.37C27.4857 18.27 27.3056 18.17 27.1256 18.07C26.9756 17.99 26.8356 17.9 26.6856 17.82C20.4456 14.39 13.8157 12.53 7.70567 3.46C7.14567 2.55 6.49564 2.56 6.49564 2.56C6.02564 2.98 5.07566 3.7 5.07566 3.7C3.99566 4.97 3.07565 6.37 2.31565 7.85C1.74565 8.9 1.31566 10.02 0.945656 11.17C1.20566 11.7 1.53564 12.32 1.92564 13.03C2.24564 13.54 2.54566 14.11 2.94566 14.68C3.32566 15.26 3.72566 15.86 4.19566 16.45C4.63566 17.07 5.15569 17.64 5.66569 18.24C6.18569 18.83 6.77568 19.38 7.34568 19.94C7.96568 20.43 8.54567 21.01 9.20567 21.44C9.86567 21.87 10.4856 22.36 11.1756 22.67C11.8456 23.02 12.4857 23.38 13.1557 23.59C13.8157 23.82 14.4257 24.1 15.0257 24.19C15.6257 24.32 16.1757 24.44 16.6657 24.54C17.1657 24.57 17.6057 24.6 17.9657 24.62C18.6857 24.67 19.1057 24.69 19.1057 24.69C19.1057 24.69 18.6957 24.71 17.9657 24.75C17.5957 24.77 17.1557 24.79 16.6457 24.82C16.1357 24.77 15.5656 24.72 14.9356 24.66C14.2956 24.64 13.6456 24.43 12.9356 24.27C12.2156 24.14 11.5057 23.84 10.7557 23.56C9.98565 23.31 9.28567 22.88 8.52567 22.5C7.76567 22.12 7.09564 21.6 6.36564 21.14C5.69564 20.61 4.99565 20.1 4.37565 19.54C3.75565 18.97 3.12567 18.42 2.58567 17.82C2.01567 17.25 1.50568 16.66 1.03568 16.09C0.695683 15.71 0.405648 15.33 0.125648 14.96C0.0156484 15.99 -0.0343272 17.02 0.0256728 18.08C0.0556728 19.16 0.14569 20.24 0.35569 21.33C0.55569 22.37 0.835687 23.36 1.16569 24.33C1.27569 24.42 1.37563 24.51 1.48563 24.61C1.90563 24.93 2.33567 25.32 2.83567 25.66C3.32567 26.02 3.85569 26.39 4.41569 26.74C4.96569 27.12 5.57566 27.43 6.19566 27.77C6.81566 28.1 7.46564 28.37 8.11564 28.66C8.78564 28.88 9.44565 29.17 10.1256 29.33C10.8056 29.48 11.4757 29.7 12.1457 29.74C12.8157 29.82 13.4557 29.92 14.0757 29.89C14.6957 29.87 15.2857 29.92 15.8257 29.81C16.3657 29.73 16.8656 29.66 17.3056 29.59C17.7356 29.46 18.1057 29.35 18.4157 29.26C19.0357 29.07 19.3857 28.97 19.3857 28.97C19.3857 28.97 19.0457 29.12 18.4657 29.39C18.1657 29.52 17.8057 29.69 17.3957 29.87C16.9557 29.99 16.4656 30.14 15.9256 30.29C15.3856 30.48 14.7757 30.52 14.1357 30.61C13.4957 30.73 12.8057 30.72 12.0957 30.72C11.3757 30.76 10.6557 30.63 9.89567 30.56C9.14567 30.49 8.41568 30.27 7.65568 30.13C6.92568 29.91 6.17568 29.71 5.47569 29.45C4.77569 29.18 4.07564 28.92 3.42564 28.6C3.32564 28.55 3.23566 28.5 3.13566 28.45C4.15566 30.1 5.37567 31.59 6.77567 32.89C7.87567 33.83 9.60564 35.11 11.9256 36.38C12.1056 36.47 12.2857 36.58 12.4657 36.66C16.4257 38.72 22.0057 40.64 29.2057 40.77C35.3057 41.29 39.6857 45.68 41.4457 51.13C42.4357 47.11 42.6057 42.82 41.7857 38.49C40.1257 29.71 34.7556 22.59 27.6156 18.38L27.6357 18.39Z" fill="url(#paint3_linear_9122_4897)"/>
<path d="M53.7261 20.52C44.7461 16.5 39.7561 23.52 39.7561 23.52L39.8061 23.5601C39.1261 24.45 38.5461 25.51 38.1061 26.75C37.8761 27.11 37.6961 27.48 37.5361 27.86C39.5761 31.01 41.0661 34.59 41.8061 38.5C42.6261 42.83 42.4561 47.12 41.4661 51.14C41.4661 51.14 52.2561 48.58 50.5461 33.82C50.8561 29.74 53.2661 26.11 53.9861 25.29C55.7761 24.87 58.0961 22.5 58.0961 22.5C58.0961 22.5 56.9861 20.8 53.7361 20.52H53.7261Z" fill="url(#paint4_linear_9122_4897)"/>
<path d="M38.6653 52.21C38.7553 52.21 38.8352 52.21 38.9252 52.22C38.3952 52.11 36.1153 51.66 32.2253 52.52C32.1853 52.9 32.1553 53.28 32.1553 53.66C32.1553 54.1 32.2053 54.54 32.2653 54.96C33.8853 53.28 36.1453 52.23 38.6653 52.2V52.21Z" fill="url(#paint5_linear_9122_4897)" style="mix-blend-mode:multiply"/>
<path d="M33.3259 58.03C32.7959 57.1 32.4359 56.07 32.2659 54.97C30.6759 56.62 29.7059 58.86 29.7259 61.33C29.7359 62.65 30.0459 63.9 30.5659 65.02C30.9159 62.18 32.1259 59.73 33.5259 57.75C33.4659 57.84 33.3959 57.93 33.3359 58.02L33.3259 58.03Z" fill="url(#paint6_linear_9122_4897)" style="mix-blend-mode:multiply"/>
<path d="M38.9259 52.22C38.9259 52.22 38.9959 52.24 39.0159 52.24C38.7959 52.2 37.3759 51.85 34.8359 52.1C37.1459 51.87 38.5259 52.14 38.9259 52.22Z" fill="url(#paint7_linear_9122_4897)"/>
<path d="M30.5657 65.02C30.0457 63.9 29.7457 62.65 29.7257 61.33C29.6957 58.86 30.6757 56.61 32.2657 54.97C32.1957 54.54 32.1557 54.11 32.1557 53.67C32.1557 53.28 32.1757 52.9 32.2257 52.53C33.1957 52.32 34.0757 52.18 34.8357 52.1C33.3157 52.25 31.3957 52.62 29.0757 53.41C11.2157 59.54 15.7557 74.96 16.3057 76.17C17.5357 76.76 18.7357 77.01 19.9257 77.07C19.8457 76.67 19.7757 76.25 19.7257 75.79C19.6357 75.05 19.6257 74.24 19.6657 73.45C19.7257 73.05 19.7357 72.66 19.8257 72.27C19.9157 71.89 19.9757 71.51 20.1157 71.16C20.2357 70.81 20.3457 70.47 20.5157 70.17C20.6757 69.87 20.7857 69.57 20.9757 69.34C21.1457 69.1 21.2957 68.88 21.4257 68.68C21.5857 68.51 21.7257 68.35 21.8457 68.23C22.0757 67.98 22.2057 67.84 22.2057 67.84C22.2057 67.84 22.0957 68 21.8957 68.27C21.7957 68.41 21.6857 68.57 21.5457 68.76C21.4457 68.97 21.3257 69.2 21.1957 69.45C21.0457 69.69 20.9757 70 20.8657 70.3C20.7457 70.6 20.6857 70.94 20.6157 71.28C20.5257 71.62 20.5256 71.98 20.4856 72.35C20.4456 72.71 20.4856 73.09 20.4856 73.45C20.5456 74.19 20.6457 74.92 20.8157 75.6C20.9357 76.13 21.0957 76.61 21.2557 77.05C23.1857 76.93 25.0957 76.43 27.0157 76.12C26.9857 76.06 26.9457 76 26.9157 75.94C26.5157 75.2 26.1857 74.37 25.9057 73.52C25.8057 73.08 25.6557 72.66 25.5957 72.23C25.5357 71.79 25.4357 71.38 25.4457 70.95C25.4257 70.53 25.4057 70.13 25.4457 69.76C25.4857 69.38 25.4857 69.02 25.5857 68.71C25.6557 68.39 25.7257 68.1 25.7857 67.84C25.8857 67.59 25.9657 67.38 26.0357 67.2C26.1757 66.85 26.2557 66.65 26.2557 66.65C26.2557 66.65 26.1957 66.86 26.1057 67.22C26.0557 67.4 25.9957 67.62 25.9357 67.87C25.9057 68.13 25.8757 68.42 25.8357 68.74C25.7757 69.05 25.8157 69.4 25.8157 69.77C25.8057 70.13 25.8757 70.51 25.9357 70.9C25.9757 71.29 26.1157 71.68 26.2157 72.08C26.3157 72.48 26.5057 72.86 26.6457 73.25C26.9957 74.01 27.3957 74.7401 27.8457 75.3801C27.9857 75.59 28.1257 75.77 28.2657 75.96C30.2957 75.76 32.3457 75.93 34.4757 77.19C31.0057 72.67 30.1257 68.55 30.5657 65.03V65.02Z" fill="url(#paint8_linear_9122_4897)"/>
<path d="M58.166 62.05V46.48H61.096V59.19H69.036V62.06H58.166V62.05Z" fill="#89878C"/>
<path d="M75.3164 62.05V46.48H78.2464V62.05H75.3164Z" fill="#89878C"/>
<path d="M141.416 62.05V46.48H144.346V62.05H141.416Z" fill="#89878C"/>
<path d="M155.406 61.44C154.486 61.04 153.646 60.48 152.936 59.76C152.206 59.05 151.636 58.21 151.266 57.27C150.846 56.31 150.636 55.3 150.636 54.23C150.636 49.94 154.156 46.44 158.446 46.44C159.656 46.44 160.876 46.73 161.946 47.28C163.016 47.8 163.976 48.62 164.686 49.58L165.016 50L162.776 51.65L162.466 51.23C161.526 49.95 160.056 49.22 158.446 49.22C155.686 49.22 153.416 51.46 153.416 54.22C153.416 56.98 155.676 59.27 158.446 59.27C160.036 59.27 161.506 58.54 162.466 57.26L162.776 56.86L164.996 58.49L164.666 58.91C163.936 59.89 163.016 60.67 161.926 61.21C160.856 61.75 159.666 62.03 158.446 62.03C157.396 62.03 156.376 61.82 155.406 61.42V61.44Z" fill="#89878C"/>
<path d="M94.4158 50.14V56.67L87.5258 46.47H84.6758V62.05H87.6158V51.83L94.5258 62.05H97.3458V50.14H94.4158Z" fill="#89878C"/>
<path d="M109.276 53.92L117.186 46.47H112.986L106.776 52.31V46.47H103.866V62.05H106.776V56.27L109.266 53.91L109.276 53.92Z" fill="#5E5E61"/>
<path d="M113.217 54.32L111.017 56.37L115.067 62.05H118.717L113.217 54.32Z" fill="#5E5E61"/>
<path d="M128.576 62.02V49.33H124.746V46.44H135.336V49.33H131.506V62.02H128.576Z" fill="#89878C"/>
<path d="M61.856 70.13H58.8059V70.15C58.8959 70.81 59.3859 71.3 59.9559 71.31C60.3059 71.29 60.6759 71.15 60.9259 70.89L61.546 71.26C61.386 71.43 61.2159 71.58 61.0159 71.7C60.7159 71.88 60.3459 71.98 59.9659 71.99C59.4459 71.99 58.9759 71.77 58.6259 71.38C58.3159 71.04 58.1259 70.61 58.0859 70.13C58.0859 70.07 58.0859 70.01 58.0859 69.95C58.0859 69.79 58.1059 69.64 58.1359 69.48C58.2159 69.12 58.3859 68.79 58.6259 68.52C58.9759 68.14 59.4559 67.92 59.9659 67.92C60.4759 67.92 60.9559 68.14 61.3159 68.52C61.5559 68.79 61.7359 69.12 61.8059 69.48C61.8659 69.83 61.8559 70.03 61.8459 70.11L61.856 70.13ZM61.0859 69.5V69.48C60.9059 68.97 60.466 68.62 59.976 68.62C59.486 68.62 59.0559 68.97 58.8759 69.48V69.5H61.0759H61.0859Z" fill="#89878C"/>
<path d="M66.0356 67.97L64.4256 71.93H63.6256L62.0156 67.97H62.8156L64.0256 70.94L65.2256 67.97H66.0256H66.0356Z" fill="#89878C"/>
<path d="M70.4156 69.95C70.4156 70.5 70.1956 71.02 69.8056 71.42C69.4156 71.81 68.8956 72.0301 68.3456 72.0301C67.7956 72.0301 67.2756 71.81 66.8756 71.42C66.4856 71.02 66.2656 70.5 66.2656 69.95C66.2656 69.4 66.4856 68.88 66.8756 68.48C67.2756 68.09 67.7956 67.8801 68.3456 67.8801C68.8956 67.8801 69.4156 68.09 69.8056 68.48C70.2056 68.88 70.4156 69.4 70.4156 69.95ZM69.6756 69.95C69.6756 69.21 69.0756 68.6301 68.3456 68.6301C67.6156 68.6301 67.0156 69.22 67.0156 69.95C67.0156 70.68 67.6156 71.2801 68.3456 71.2801C69.0756 71.2801 69.6756 70.68 69.6756 69.95Z" fill="#89878C"/>
<path d="M71.1855 71.93V65.58H71.9255V71.93H71.1855Z" fill="#89878C"/>
<path d="M73.0159 70.23V67.96H73.7559V70.23C73.7559 70.81 74.2359 71.28 74.8459 71.28C75.4559 71.28 75.9359 70.8 75.9359 70.23V67.96H76.6758V70.23C76.6758 70.71 76.4759 71.16 76.1359 71.5C75.7859 71.84 75.3359 72.01 74.8459 72.01C74.3559 72.01 73.8959 71.84 73.5459 71.5C73.1959 71.16 73.0059 70.71 73.0059 70.23H73.0159Z" fill="#89878C"/>
<path d="M81.2258 71.1601C81.1558 71.2501 81.0858 71.3301 81.0058 71.4101C80.6158 71.8001 80.0958 72.01 79.5458 72.01C78.9958 72.01 78.4658 71.8001 78.0758 71.4101C77.6858 71.0101 77.4658 70.4901 77.4658 69.9401C77.4658 69.3901 77.6858 68.8701 78.0758 68.4701C78.4658 68.0801 78.9958 67.8701 79.5458 67.8701C80.0958 67.8701 80.6158 68.0801 81.0058 68.4701C81.0858 68.5501 81.1558 68.6301 81.2158 68.7101L80.6158 69.1501C80.3758 68.8201 79.9858 68.6 79.5458 68.6C78.8158 68.6 78.2158 69.2101 78.2158 69.9401C78.2158 70.6701 78.8158 71.2801 79.5458 71.2801C79.9858 71.2801 80.3758 71.0601 80.6158 70.7201L81.2258 71.1601Z" fill="#89878C"/>
<path d="M82.0557 66.83C82.0557 66.56 82.2757 66.35 82.5457 66.35C82.8157 66.35 83.0257 66.57 83.0257 66.83C83.0257 67.09 82.8057 67.32 82.5457 67.32C82.2857 67.32 82.0557 67.1 82.0557 66.83ZM82.1857 67.9701H82.9257V71.9301H82.1857V67.9701Z" fill="#89878C"/>
<path d="M88.0358 69.95C88.0358 70.5 87.8157 71.02 87.4257 71.42C87.0357 71.81 86.5158 72.0301 85.9658 72.0301C85.4158 72.0301 84.8957 71.81 84.4957 71.42C84.1057 71.02 83.8857 70.5 83.8857 69.95C83.8857 69.4 84.1057 68.88 84.4957 68.48C84.8957 68.09 85.4158 67.8801 85.9658 67.8801C86.5158 67.8801 87.0357 68.09 87.4257 68.48C87.8257 68.88 88.0358 69.4 88.0358 69.95ZM87.2858 69.95C87.2858 69.21 86.6857 68.6301 85.9557 68.6301C85.2257 68.6301 84.6257 69.22 84.6257 69.95C84.6257 70.68 85.2257 71.2801 85.9557 71.2801C86.6857 71.2801 87.2858 70.68 87.2858 69.95Z" fill="#89878C"/>
<path d="M92.6061 69.8V71.93H91.8661V69.8C91.8661 69.15 91.3461 68.62 90.6961 68.62C90.0461 68.62 89.5261 69.16 89.5261 69.8V71.93H88.7861V67.97H89.5261V68.35C89.8661 68.09 90.2661 67.89 90.6961 67.89C91.2061 67.89 91.6861 68.08 92.0561 68.44C92.4061 68.8 92.6061 69.28 92.6061 69.8Z" fill="#89878C"/>
<path d="M96.6863 67.9701H97.4263V71.9301H96.6863V71.4701C96.3163 71.7801 95.8464 72.01 95.3564 72.01C94.8064 72.01 94.2864 71.8001 93.8864 71.4101C93.4964 71.0101 93.2764 70.4901 93.2764 69.9401C93.2764 69.3901 93.4964 68.8701 93.8864 68.4701C94.2864 68.0801 94.8064 67.8701 95.3564 67.8701C95.8464 67.8701 96.3163 68.1001 96.6863 68.4101V67.95V67.9701ZM96.6863 69.95C96.6863 69.21 96.0864 68.61 95.3564 68.61C94.6264 68.61 94.0264 69.22 94.0264 69.95C94.0264 70.68 94.6264 71.29 95.3564 71.29C96.0864 71.29 96.6863 70.68 96.6863 69.95Z" fill="#89878C"/>
<path d="M105.296 69.8V71.93H104.556V69.8C104.556 69.15 104.026 68.62 103.386 68.62C102.746 68.62 102.206 69.16 102.206 69.8V71.93H101.466V69.8C101.466 69.15 100.946 68.62 100.296 68.62C99.6458 68.62 99.1257 69.16 99.1257 69.8V71.93H98.3857V67.97H99.1257V68.35C99.4657 68.09 99.8658 67.89 100.296 67.89C100.806 67.89 101.286 68.11 101.656 68.48C101.726 68.55 101.786 68.62 101.836 68.7C101.896 68.62 101.956 68.55 102.026 68.48C102.386 68.12 102.876 67.89 103.386 67.89C103.896 67.89 104.376 68.08 104.736 68.44C105.096 68.8 105.296 69.28 105.296 69.8Z" fill="#89878C"/>
<path d="M110.126 69.95C110.126 70.5 109.906 71.02 109.516 71.42C109.126 71.81 108.606 72.0301 108.056 72.0301C107.506 72.0301 106.986 71.81 106.586 71.42C106.196 71.02 105.976 70.5 105.976 69.95C105.976 69.4 106.196 68.88 106.586 68.48C106.986 68.09 107.506 67.8801 108.056 67.8801C108.606 67.8801 109.126 68.09 109.516 68.48C109.916 68.88 110.126 69.4 110.126 69.95ZM109.386 69.95C109.386 69.21 108.786 68.6301 108.056 68.6301C107.326 68.6301 106.726 69.22 106.726 69.95C106.726 70.68 107.326 71.2801 108.056 71.2801C108.786 71.2801 109.386 70.68 109.386 69.95Z" fill="#89878C"/>
<path d="M113.676 70.76C113.676 70.98 113.616 71.2 113.486 71.38C113.366 71.56 113.196 71.7 112.956 71.81C112.746 71.91 112.496 71.96 112.246 71.96C112.106 71.96 111.976 71.94 111.836 71.92C111.406 71.83 110.996 71.64 110.656 71.35L111.126 70.84C111.586 71.23 111.976 71.31 112.216 71.31C112.376 71.31 112.536 71.28 112.676 71.21C112.786 71.16 112.986 71.03 112.986 70.76C112.986 70.49 112.756 70.33 112.216 70.23C112.186 70.23 111.536 70.1 111.286 69.96C110.926 69.75 110.736 69.43 110.736 69.03C110.736 68.81 110.806 68.61 110.926 68.42C111.036 68.26 111.196 68.14 111.416 68.04C111.626 67.94 111.846 67.89 112.096 67.89C112.196 67.89 112.296 67.89 112.386 67.91C112.766 67.97 113.136 68.13 113.446 68.39L113.016 68.89C112.626 68.59 112.286 68.54 112.126 68.54C111.966 68.54 111.826 68.57 111.706 68.63C111.536 68.72 111.416 68.87 111.416 69.03C111.416 69.29 111.626 69.43 112.156 69.54C112.156 69.54 112.876 69.7 113.076 69.81C113.306 69.93 113.396 70.03 113.486 70.15C113.606 70.32 113.666 70.53 113.666 70.76H113.676Z" fill="#89878C"/>
<path d="M119.976 71.1601C119.906 71.2501 119.836 71.3301 119.756 71.4101C119.366 71.8001 118.846 72.01 118.296 72.01C117.746 72.01 117.216 71.8001 116.826 71.4101C116.436 71.0101 116.216 70.4901 116.216 69.9401C116.216 69.3901 116.436 68.8701 116.826 68.4701C117.216 68.0801 117.746 67.8701 118.296 67.8701C118.846 67.8701 119.366 68.0801 119.756 68.4701C119.836 68.5501 119.906 68.6301 119.966 68.7101L119.366 69.1501C119.126 68.8201 118.736 68.6 118.296 68.6C117.556 68.6 116.966 69.2101 116.966 69.9401C116.966 70.6701 117.566 71.2801 118.296 71.2801C118.736 71.2801 119.126 71.0601 119.366 70.7201L119.976 71.1601Z" fill="#89878C"/>
<path d="M124.536 69.95C124.536 70.5 124.316 71.02 123.926 71.42C123.536 71.81 123.016 72.0301 122.466 72.0301C121.916 72.0301 121.396 71.81 120.996 71.42C120.606 71.02 120.386 70.5 120.386 69.95C120.386 69.4 120.606 68.88 120.996 68.48C121.396 68.09 121.916 67.8801 122.466 67.8801C123.016 67.8801 123.536 68.09 123.926 68.48C124.326 68.88 124.536 69.4 124.536 69.95ZM123.786 69.95C123.786 69.21 123.186 68.6301 122.456 68.6301C121.726 68.6301 121.126 69.22 121.126 69.95C121.126 70.68 121.726 71.2801 122.456 71.2801C123.186 71.2801 123.786 70.68 123.786 69.95Z" fill="#89878C"/>
<path d="M129.106 69.8V71.93H128.366V69.8C128.366 69.15 127.846 68.62 127.196 68.62C126.546 68.62 126.026 69.16 126.026 69.8V71.93H125.286V67.97H126.026V68.35C126.366 68.09 126.766 67.89 127.196 67.89C127.706 67.89 128.186 68.08 128.556 68.44C128.906 68.8 129.106 69.28 129.106 69.8Z" fill="#89878C"/>
<path d="M130.235 70.61V68.67H129.646V67.96H130.235V66.43H130.976V67.96H132.195V68.67H130.976V70.59C130.976 70.91 131.255 71.21 131.565 71.21H132.235L132.425 71.92H131.555C130.825 71.92 130.245 71.34 130.245 70.61H130.235Z" fill="#89878C"/>
<path d="M133.126 66.83C133.126 66.56 133.346 66.35 133.616 66.35C133.886 66.35 134.096 66.57 134.096 66.83C134.096 67.09 133.876 67.32 133.616 67.32C133.356 67.32 133.126 67.1 133.126 66.83ZM133.246 67.9701H133.986V71.9301H133.246V67.9701Z" fill="#89878C"/>
<path d="M138.956 67.9701V72.1201C138.956 72.6701 138.736 73.2001 138.346 73.5901C137.956 73.9801 137.436 74.2 136.886 74.2C136.476 74.2 136.086 74.0901 135.766 73.9001C135.636 73.8201 135.506 73.72 135.396 73.61L135.956 73.1201C136.206 73.3201 136.566 73.4601 136.886 73.4701C137.626 73.4701 138.216 72.8601 138.216 72.1201V71.4701C137.846 71.7801 137.376 72.01 136.886 72.01C136.336 72.01 135.816 71.8001 135.416 71.4101C135.026 71.0101 134.806 70.4901 134.806 69.9401C134.806 69.3901 135.026 68.8701 135.416 68.4701C135.816 68.0801 136.336 67.8701 136.886 67.8701C137.376 67.8701 137.846 68.1001 138.216 68.4101V67.95H138.956V67.9701ZM138.216 69.95C138.216 69.21 137.616 68.61 136.886 68.61C136.156 68.61 135.556 69.22 135.556 69.95C135.556 70.68 136.156 71.29 136.886 71.29C137.616 71.29 138.216 70.68 138.216 69.95Z" fill="#89878C"/>
<path d="M143.786 69.95C143.786 70.5 143.566 71.02 143.176 71.42C142.786 71.81 142.266 72.0301 141.716 72.0301C141.166 72.0301 140.646 71.81 140.246 71.42C139.856 71.02 139.636 70.5 139.636 69.95C139.636 69.4 139.856 68.88 140.246 68.48C140.646 68.09 141.166 67.8801 141.716 67.8801C142.266 67.8801 142.786 68.09 143.176 68.48C143.576 68.88 143.786 69.4 143.786 69.95ZM143.046 69.95C143.046 69.21 142.446 68.6301 141.716 68.6301C140.986 68.6301 140.386 69.22 140.386 69.95C140.386 70.68 140.986 71.2801 141.716 71.2801C142.446 71.2801 143.046 70.68 143.046 69.95Z" fill="#89878C"/>
<defs>
<linearGradient id="paint0_linear_9122_4897" x1="34.2756" y1="55.08" x2="46.1757" y2="55.31" gradientUnits="userSpaceOnUse">
<stop stop-color="#008000"/>
<stop offset="0.11" stop-color="#078806"/>
<stop offset="0.29" stop-color="#1D9D18"/>
<stop offset="0.5" stop-color="#40C135"/>
<stop offset="0.75" stop-color="#71F35D"/>
<stop offset="0.8" stop-color="#7DFF67"/>
</linearGradient>
<linearGradient id="paint1_linear_9122_4897" x1="24.1053" y1="20.34" x2="30.6852" y2="1.32999" gradientUnits="userSpaceOnUse">
<stop stop-color="#008000"/>
<stop offset="0.79" stop-color="#1DCE00"/>
</linearGradient>
<linearGradient id="paint2_linear_9122_4897" x1="39.5253" y1="33.56" x2="41.1353" y2="32.19" gradientUnits="userSpaceOnUse">
<stop stop-color="#008000"/>
<stop offset="0.79" stop-color="#1DCE00"/>
</linearGradient>
<linearGradient id="paint3_linear_9122_4897" x1="11.4529" y1="40.5169" x2="36.6435" y2="12.9268" gradientUnits="userSpaceOnUse">
<stop stop-color="#00D9FF"/>
<stop offset="0.79" stop-color="#0094FF"/>
</linearGradient>
<linearGradient id="paint4_linear_9122_4897" x1="62.7361" y1="25.31" x2="25.5861" y2="44.77" gradientUnits="userSpaceOnUse">
<stop stop-color="#00D9FF"/>
<stop offset="0.79" stop-color="#007FFF"/>
</linearGradient>
<linearGradient id="paint5_linear_9122_4897" x1="32.2853" y1="55.43" x2="39.3653" y2="48.84" gradientUnits="userSpaceOnUse">
<stop stop-color="#008000"/>
<stop offset="0.79" stop-color="#1DCE00"/>
</linearGradient>
<linearGradient id="paint6_linear_9122_4897" x1="28.8159" y1="62.05" x2="40.7959" y2="52.5601" gradientUnits="userSpaceOnUse">
<stop stop-color="#008000"/>
<stop offset="0.79" stop-color="#1DCE00"/>
</linearGradient>
<linearGradient id="paint7_linear_9122_4897" x1="35.6659" y1="53.11" x2="40.6159" y2="49.4" gradientUnits="userSpaceOnUse">
<stop stop-color="#008000"/>
<stop offset="0.79" stop-color="#1DCE00"/>
</linearGradient>
<linearGradient id="paint8_linear_9122_4897" x1="17.3457" y1="75.47" x2="43.3457" y2="55.53" gradientUnits="userSpaceOnUse">
<stop stop-color="#008000"/>
<stop offset="0.79" stop-color="#1DCE00"/>
</linearGradient>
</defs>
</svg>
