<svg width="166" height="78" viewBox="0 0 166 78" fill="none" xmlns="http://www.w3.org/2000/svg">
<path d="M39.0256 52.24C39.0256 52.24 38.9757 52.23 38.9257 52.22C38.8357 52.22 38.7556 52.21 38.6656 52.21C36.1456 52.24 33.8856 53.29 32.2656 54.97C32.4356 56.07 32.7957 57.1 33.3257 58.03C33.3857 57.94 33.4556 57.85 33.5156 57.76C33.5956 57.64 33.6856 57.52 33.7656 57.4C33.9456 57.16 34.1257 56.92 34.3157 56.69C34.4157 56.56 34.5256 56.44 34.6256 56.31C34.7356 56.18 34.8357 56.06 34.9457 55.93C35.0857 55.77 35.2156 55.62 35.3556 55.47C35.4956 55.32 35.6356 55.17 35.7756 55.03C35.8956 54.91 36.0056 54.79 36.1256 54.68C36.2056 54.6 36.2956 54.52 36.3756 54.44C36.5656 54.26 36.7557 54.09 36.9357 53.92C37.0057 53.86 37.0756 53.79 37.1456 53.73C37.2556 53.64 37.3556 53.55 37.4556 53.46C37.5256 53.4 37.5856 53.35 37.6556 53.29C37.8056 53.17 37.9357 53.06 38.0657 52.96C38.1357 52.91 38.1956 52.85 38.2556 52.81C38.3256 52.76 38.3857 52.71 38.4457 52.66C38.5157 52.61 38.5756 52.57 38.6256 52.52C38.6856 52.48 38.7356 52.44 38.7856 52.4C38.8456 52.36 38.8857 52.33 38.9257 52.3C38.9557 52.28 38.9656 52.27 38.9856 52.26C39.0156 52.24 39.0356 52.23 39.0356 52.23C39.0356 52.23 39.0356 52.23 39.0056 52.23L39.0256 52.24Z" fill="#E1E1E1"/>
<path d="M37.5453 27.86C37.7053 27.48 37.8952 27.11 38.1152 26.75C38.2452 26.38 38.3953 26.03 38.5453 25.7C37.3853 23.46 35.9352 21.4 34.2252 19.56C34.2252 19.56 34.2352 19.56 34.2452 19.55C34.1152 19.41 33.9852 19.28 33.8552 19.15C33.7452 19.04 33.6453 18.93 33.5353 18.82C28.9053 14.14 23.5252 10.76 20.5052 1.10999C20.2552 0.159985 19.6753 0 19.6753 0C19.1553 0.24 18.1152 0.630005 18.1152 0.630005C16.8252 1.47 15.6452 2.46002 14.5852 3.58002C13.2952 4.88002 12.2152 6.37998 11.3652 8.03998C16.4152 13.33 21.6753 15.08 26.6953 17.83C26.8453 17.91 26.9853 17.99 27.1353 18.08C27.3153 18.18 27.4853 18.27 27.6653 18.38C27.6653 18.38 27.6553 18.39 27.6453 18.4C31.9253 20.93 35.5753 24.51 38.1553 28.86C37.9553 28.53 37.7553 28.19 37.5453 27.87V27.86Z" fill="#E1E1E1"/>
<path d="M41.6052 37.57C41.6052 37.57 41.6052 37.56 41.6052 37.55C40.9052 34.43 39.7453 31.53 38.1953 28.9C39.7453 31.53 40.9152 34.43 41.6052 37.56V37.57Z" fill="#E1E1E1"/>
<path d="M27.6357 18.39C27.6357 18.39 27.6457 18.38 27.6557 18.37C27.4857 18.27 27.3056 18.17 27.1256 18.07C26.9756 17.99 26.8357 17.9 26.6857 17.82C20.4457 14.39 13.8156 12.53 7.7056 3.45997C7.1456 2.54997 6.49564 2.56 6.49564 2.56C6.02564 2.98 5.07572 3.70002 5.07572 3.70002C3.99572 4.97002 3.07571 6.36998 2.31571 7.84998C1.74571 8.89998 1.31572 10.02 0.945717 11.17C1.20572 11.7 1.5357 12.32 1.9257 13.03C2.2457 13.54 2.54572 14.11 2.94572 14.68C3.32572 15.26 3.72572 15.86 4.19572 16.45C4.63572 17.07 5.15569 17.64 5.66569 18.24C6.18569 18.83 6.77562 19.38 7.34562 19.94C7.96562 20.43 8.5456 21.01 9.2056 21.44C9.8656 21.87 10.4857 22.36 11.1757 22.67C11.8457 23.02 12.4857 23.38 13.1557 23.59C13.8157 23.82 14.4257 24.1 15.0257 24.19C15.6257 24.32 16.1757 24.44 16.6657 24.54C17.1657 24.57 17.6056 24.6 17.9656 24.62C18.6856 24.67 19.1056 24.69 19.1056 24.69C19.1056 24.69 18.6956 24.71 17.9656 24.75C17.5956 24.77 17.1557 24.79 16.6457 24.82C16.1357 24.77 15.5657 24.72 14.9357 24.66C14.2957 24.64 13.6457 24.43 12.9357 24.27C12.2157 24.14 11.5057 23.84 10.7557 23.56C9.98565 23.31 9.28567 22.88 8.52567 22.5C7.76567 22.12 7.09564 21.6 6.36564 21.14C5.69564 20.61 4.99565 20.1 4.37565 19.54C3.75565 18.97 3.12561 18.42 2.58561 17.82C2.01561 17.25 1.50568 16.66 1.03568 16.09C0.695683 15.71 0.405648 15.33 0.125648 14.96C0.0156484 15.99 -0.0343272 17.02 0.0256728 18.08C0.0556728 19.16 0.145629 20.24 0.355629 21.33C0.555629 22.37 0.835687 23.36 1.16569 24.33C1.27569 24.42 1.37563 24.51 1.48563 24.61C1.90563 24.93 2.33561 25.32 2.83561 25.66C3.32561 26.02 3.85569 26.39 4.41569 26.74C4.96569 27.12 5.57572 27.43 6.19572 27.77C6.81572 28.1 7.46564 28.37 8.11564 28.66C8.78564 28.88 9.44565 29.17 10.1256 29.33C10.8056 29.48 11.4757 29.7 12.1457 29.74C12.8157 29.82 13.4557 29.92 14.0757 29.89C14.6957 29.87 15.2857 29.92 15.8257 29.81C16.3657 29.73 16.8657 29.66 17.3057 29.59C17.7357 29.46 18.1057 29.35 18.4157 29.26C19.0357 29.07 19.3857 28.97 19.3857 28.97C19.3857 28.97 19.0456 29.12 18.4656 29.39C18.1656 29.52 17.8057 29.69 17.3957 29.87C16.9557 29.99 16.4657 30.14 15.9257 30.29C15.3857 30.48 14.7757 30.52 14.1357 30.61C13.4957 30.73 12.8056 30.72 12.0956 30.72C11.3756 30.76 10.6557 30.63 9.89567 30.56C9.14567 30.49 8.41568 30.27 7.65568 30.13C6.92568 29.91 6.17562 29.71 5.47562 29.45C4.77562 29.18 4.0757 28.92 3.4257 28.6C3.3257 28.55 3.23566 28.5 3.13566 28.45C4.15566 30.1 5.37567 31.59 6.77567 32.89C7.87567 33.83 9.6057 35.11 11.9257 36.38C12.1057 36.47 12.2856 36.58 12.4656 36.66C16.4256 38.72 22.0056 40.64 29.2056 40.77C35.3056 41.29 39.6857 45.68 41.4457 51.13C42.4357 47.11 42.6057 42.82 41.7857 38.49C40.1257 29.71 34.7556 22.59 27.6156 18.38L27.6357 18.39Z" fill="white"/>
<path d="M53.7251 20.52C44.7451 16.5 39.7551 23.52 39.7551 23.52L39.8052 23.56C39.1252 24.45 38.5451 25.51 38.1051 26.75C37.8751 27.11 37.6952 27.48 37.5352 27.86C39.5752 31.01 41.0652 34.59 41.8052 38.5C42.6252 42.83 42.4551 47.12 41.4651 51.14C41.4651 51.14 52.2552 48.58 50.5452 33.82C50.8552 29.74 53.2651 26.11 53.9851 25.29C55.7751 24.87 58.0951 22.5 58.0951 22.5C58.0951 22.5 56.9851 20.8 53.7351 20.52H53.7251Z" fill="white"/>
<path d="M38.6653 52.21C38.7553 52.21 38.8353 52.21 38.9253 52.22C38.3953 52.11 36.1152 51.66 32.2252 52.52C32.1852 52.9 32.1553 53.28 32.1553 53.66C32.1553 54.1 32.2053 54.54 32.2653 54.96C33.8853 53.28 36.1453 52.23 38.6653 52.2V52.21Z" fill="#E1E1E1"/>
<path d="M33.326 58.03C32.796 57.1 32.4359 56.07 32.2659 54.97C30.6759 56.62 29.7059 58.86 29.7259 61.33C29.7359 62.65 30.046 63.9 30.566 65.02C30.916 62.18 32.1259 59.73 33.5259 57.75C33.4659 57.84 33.3959 57.93 33.3359 58.02L33.326 58.03Z" fill="#E1E1E1"/>
<path d="M38.926 52.22C38.926 52.22 38.996 52.24 39.016 52.24C38.796 52.2 37.3759 51.85 34.8359 52.1C37.1459 51.87 38.526 52.14 38.926 52.22Z" fill="white"/>
<path d="M30.5657 65.02C30.0457 63.9 29.7456 62.65 29.7256 61.33C29.6956 58.86 30.6756 56.61 32.2656 54.97C32.1956 54.54 32.1556 54.11 32.1556 53.67C32.1556 53.28 32.1756 52.9 32.2256 52.53C33.1956 52.32 34.0756 52.18 34.8356 52.1C33.3156 52.25 31.3957 52.62 29.0757 53.41C11.2157 59.54 15.7557 74.96 16.3057 76.17C17.5357 76.76 18.7357 77.01 19.9257 77.07C19.8457 76.67 19.7756 76.25 19.7256 75.79C19.6356 75.05 19.6256 74.24 19.6656 73.45C19.7256 73.05 19.7357 72.66 19.8257 72.27C19.9157 71.89 19.9756 71.51 20.1156 71.16C20.2356 70.81 20.3456 70.47 20.5156 70.17C20.6756 69.87 20.7856 69.57 20.9756 69.34C21.1456 69.1 21.2957 68.88 21.4257 68.68C21.5857 68.51 21.7256 68.35 21.8456 68.23C22.0756 67.98 22.2056 67.84 22.2056 67.84C22.2056 67.84 22.0956 68 21.8956 68.27C21.7956 68.41 21.6856 68.57 21.5456 68.76C21.4456 68.97 21.3257 69.2 21.1957 69.45C21.0457 69.69 20.9756 70 20.8656 70.3C20.7456 70.6 20.6856 70.94 20.6156 71.28C20.5256 71.62 20.5256 71.98 20.4856 72.35C20.4456 72.71 20.4856 73.09 20.4856 73.45C20.5456 74.19 20.6457 74.92 20.8157 75.6C20.9357 76.13 21.0956 76.61 21.2556 77.05C23.1856 76.93 25.0956 76.43 27.0156 76.12C26.9856 76.06 26.9456 76 26.9156 75.94C26.5156 75.2 26.1856 74.37 25.9056 73.52C25.8056 73.08 25.6556 72.66 25.5956 72.23C25.5356 71.79 25.4357 71.38 25.4457 70.95C25.4257 70.53 25.4057 70.13 25.4457 69.76C25.4857 69.38 25.4856 69.02 25.5856 68.71C25.6556 68.39 25.7256 68.1 25.7856 67.84C25.8856 67.59 25.9656 67.38 26.0356 67.2C26.1756 66.85 26.2556 66.65 26.2556 66.65C26.2556 66.65 26.1956 66.86 26.1056 67.22C26.0556 67.4 25.9957 67.62 25.9357 67.87C25.9057 68.13 25.8756 68.42 25.8356 68.74C25.7756 69.05 25.8157 69.4 25.8157 69.77C25.8057 70.13 25.8757 70.51 25.9357 70.9C25.9757 71.29 26.1156 71.68 26.2156 72.08C26.3156 72.48 26.5056 72.86 26.6456 73.25C26.9956 74.01 27.3956 74.74 27.8456 75.38C27.9856 75.59 28.1256 75.77 28.2656 75.96C30.2956 75.76 32.3456 75.93 34.4756 77.19C31.0056 72.67 30.1257 68.55 30.5657 65.03V65.02Z" fill="white"/>
<path d="M58.166 62.05V46.48H61.0959V59.19H69.036V62.06H58.166V62.05Z" fill="white"/>
<path d="M75.3164 62.05V46.48H78.2463V62.05H75.3164Z" fill="white"/>
<path d="M141.416 62.05V46.48H144.346V62.05H141.416Z" fill="white"/>
<path d="M155.406 61.44C154.486 61.04 153.646 60.48 152.936 59.76C152.206 59.05 151.636 58.21 151.266 57.27C150.846 56.31 150.636 55.3 150.636 54.23C150.636 49.94 154.156 46.44 158.446 46.44C159.656 46.44 160.876 46.73 161.946 47.28C163.016 47.8 163.976 48.62 164.686 49.58L165.016 50L162.776 51.65L162.466 51.23C161.526 49.95 160.056 49.22 158.446 49.22C155.686 49.22 153.416 51.46 153.416 54.22C153.416 56.98 155.676 59.27 158.446 59.27C160.036 59.27 161.506 58.54 162.466 57.26L162.776 56.86L164.996 58.49L164.666 58.91C163.936 59.89 163.016 60.67 161.926 61.21C160.856 61.75 159.666 62.03 158.446 62.03C157.396 62.03 156.376 61.82 155.406 61.42V61.44Z" fill="white"/>
<path d="M94.4158 50.14V56.67L87.5258 46.47H84.6758V62.05H87.6157V51.83L94.5258 62.05H97.3457V50.14H94.4158Z" fill="white"/>
<path d="M109.276 53.92L117.186 46.47H112.986L106.776 52.31V46.47H103.866V62.05H106.776V56.27L109.266 53.91L109.276 53.92Z" fill="#E1E1E1"/>
<path d="M113.217 54.32L111.017 56.37L115.067 62.05H118.717L113.217 54.32Z" fill="#E1E1E1"/>
<path d="M128.576 62.02V49.33H124.746V46.44H135.336V49.33H131.506V62.02H128.576Z" fill="white"/>
<path d="M61.856 70.13H58.806V70.15C58.896 70.81 59.3859 71.3 59.9559 71.31C60.3059 71.29 60.676 71.15 60.926 70.89L61.546 71.26C61.386 71.43 61.216 71.58 61.016 71.7C60.716 71.88 60.3459 71.98 59.9659 71.99C59.4459 71.99 58.976 71.77 58.626 71.38C58.316 71.04 58.1259 70.61 58.0859 70.13C58.0859 70.07 58.0859 70.01 58.0859 69.95C58.0859 69.79 58.106 69.64 58.136 69.48C58.216 69.12 58.386 68.79 58.626 68.52C58.976 68.14 59.4559 67.92 59.9659 67.92C60.4759 67.92 60.956 68.14 61.316 68.52C61.556 68.79 61.736 69.12 61.806 69.48C61.866 69.83 61.8559 70.03 61.8459 70.11L61.856 70.13ZM61.0859 69.5V69.48C60.9059 68.97 60.466 68.62 59.976 68.62C59.486 68.62 59.056 68.97 58.876 69.48V69.5H61.076H61.0859Z" fill="white"/>
<path d="M66.0356 67.97L64.4257 71.93H63.6256L62.0156 67.97H62.8157L64.0256 70.94L65.2256 67.97H66.0256H66.0356Z" fill="white"/>
<path d="M70.4156 69.95C70.4156 70.5 70.1957 71.02 69.8057 71.42C69.4157 71.81 68.8956 72.03 68.3456 72.03C67.7956 72.03 67.2756 71.81 66.8756 71.42C66.4856 71.02 66.2656 70.5 66.2656 69.95C66.2656 69.4 66.4856 68.88 66.8756 68.48C67.2756 68.09 67.7956 67.88 68.3456 67.88C68.8956 67.88 69.4157 68.09 69.8057 68.48C70.2057 68.88 70.4156 69.4 70.4156 69.95ZM69.6757 69.95C69.6757 69.21 69.0756 68.63 68.3456 68.63C67.6156 68.63 67.0156 69.22 67.0156 69.95C67.0156 70.68 67.6156 71.28 68.3456 71.28C69.0756 71.28 69.6757 70.68 69.6757 69.95Z" fill="white"/>
<path d="M71.1855 71.93V65.58H71.9255V71.93H71.1855Z" fill="white"/>
<path d="M73.0159 70.23V67.96H73.7559V70.23C73.7559 70.81 74.2358 71.28 74.8458 71.28C75.4558 71.28 75.9359 70.8 75.9359 70.23V67.96H76.6759V70.23C76.6759 70.71 76.4759 71.16 76.1359 71.5C75.7859 71.84 75.3358 72.01 74.8458 72.01C74.3558 72.01 73.8959 71.84 73.5459 71.5C73.1959 71.16 73.0059 70.71 73.0059 70.23H73.0159Z" fill="white"/>
<path d="M81.2258 71.16C81.1558 71.25 81.0859 71.33 81.0059 71.41C80.6159 71.8 80.0959 72.01 79.5459 72.01C78.9959 72.01 78.4659 71.8 78.0759 71.41C77.6859 71.01 77.4658 70.49 77.4658 69.94C77.4658 69.39 77.6859 68.87 78.0759 68.47C78.4659 68.08 78.9959 67.87 79.5459 67.87C80.0959 67.87 80.6159 68.08 81.0059 68.47C81.0859 68.55 81.1558 68.63 81.2158 68.71L80.6158 69.15C80.3758 68.82 79.9859 68.6 79.5459 68.6C78.8159 68.6 78.2158 69.21 78.2158 69.94C78.2158 70.67 78.8159 71.28 79.5459 71.28C79.9859 71.28 80.3758 71.06 80.6158 70.72L81.2258 71.16Z" fill="white"/>
<path d="M82.0557 66.83C82.0557 66.56 82.2757 66.35 82.5457 66.35C82.8157 66.35 83.0256 66.57 83.0256 66.83C83.0256 67.09 82.8057 67.32 82.5457 67.32C82.2857 67.32 82.0557 67.1 82.0557 66.83ZM82.1857 67.97H82.9257V71.93H82.1857V67.97Z" fill="white"/>
<path d="M88.0358 69.95C88.0358 70.5 87.8158 71.02 87.4258 71.42C87.0358 71.81 86.5157 72.03 85.9657 72.03C85.4157 72.03 84.8957 71.81 84.4957 71.42C84.1057 71.02 83.8857 70.5 83.8857 69.95C83.8857 69.4 84.1057 68.88 84.4957 68.48C84.8957 68.09 85.4157 67.88 85.9657 67.88C86.5157 67.88 87.0358 68.09 87.4258 68.48C87.8258 68.88 88.0358 69.4 88.0358 69.95ZM87.2858 69.95C87.2858 69.21 86.6857 68.63 85.9557 68.63C85.2257 68.63 84.6257 69.22 84.6257 69.95C84.6257 70.68 85.2257 71.28 85.9557 71.28C86.6857 71.28 87.2858 70.68 87.2858 69.95Z" fill="white"/>
<path d="M92.6061 69.8V71.93H91.8661V69.8C91.8661 69.15 91.3462 68.62 90.6962 68.62C90.0462 68.62 89.5261 69.16 89.5261 69.8V71.93H88.7861V67.97H89.5261V68.35C89.8661 68.09 90.2662 67.89 90.6962 67.89C91.2062 67.89 91.6862 68.08 92.0562 68.44C92.4062 68.8 92.6061 69.28 92.6061 69.8Z" fill="white"/>
<path d="M96.6864 67.97H97.4264V71.93H96.6864V71.47C96.3164 71.78 95.8463 72.01 95.3563 72.01C94.8063 72.01 94.2864 71.8 93.8864 71.41C93.4964 71.01 93.2764 70.49 93.2764 69.94C93.2764 69.39 93.4964 68.87 93.8864 68.47C94.2864 68.08 94.8063 67.87 95.3563 67.87C95.8463 67.87 96.3164 68.1 96.6864 68.41V67.95V67.97ZM96.6864 69.95C96.6864 69.21 96.0863 68.61 95.3563 68.61C94.6263 68.61 94.0264 69.22 94.0264 69.95C94.0264 70.68 94.6263 71.29 95.3563 71.29C96.0863 71.29 96.6864 70.68 96.6864 69.95Z" fill="white"/>
<path d="M105.296 69.8V71.93H104.556V69.8C104.556 69.15 104.026 68.62 103.386 68.62C102.746 68.62 102.206 69.16 102.206 69.8V71.93H101.466V69.8C101.466 69.15 100.946 68.62 100.296 68.62C99.6458 68.62 99.1257 69.16 99.1257 69.8V71.93H98.3857V67.97H99.1257V68.35C99.4657 68.09 99.8658 67.89 100.296 67.89C100.806 67.89 101.286 68.11 101.656 68.48C101.726 68.55 101.786 68.62 101.836 68.7C101.896 68.62 101.956 68.55 102.026 68.48C102.386 68.12 102.876 67.89 103.386 67.89C103.896 67.89 104.376 68.08 104.736 68.44C105.096 68.8 105.296 69.28 105.296 69.8Z" fill="white"/>
<path d="M110.126 69.95C110.126 70.5 109.906 71.02 109.516 71.42C109.126 71.81 108.606 72.03 108.056 72.03C107.506 72.03 106.986 71.81 106.586 71.42C106.196 71.02 105.976 70.5 105.976 69.95C105.976 69.4 106.196 68.88 106.586 68.48C106.986 68.09 107.506 67.88 108.056 67.88C108.606 67.88 109.126 68.09 109.516 68.48C109.916 68.88 110.126 69.4 110.126 69.95ZM109.386 69.95C109.386 69.21 108.786 68.63 108.056 68.63C107.326 68.63 106.726 69.22 106.726 69.95C106.726 70.68 107.326 71.28 108.056 71.28C108.786 71.28 109.386 70.68 109.386 69.95Z" fill="white"/>
<path d="M113.676 70.76C113.676 70.98 113.616 71.2 113.486 71.38C113.366 71.56 113.196 71.7 112.956 71.81C112.746 71.91 112.496 71.96 112.246 71.96C112.106 71.96 111.976 71.94 111.836 71.92C111.406 71.83 110.996 71.64 110.656 71.35L111.126 70.84C111.586 71.23 111.976 71.31 112.216 71.31C112.376 71.31 112.536 71.28 112.676 71.21C112.786 71.16 112.986 71.03 112.986 70.76C112.986 70.49 112.756 70.33 112.216 70.23C112.186 70.23 111.536 70.1 111.286 69.96C110.926 69.75 110.736 69.43 110.736 69.03C110.736 68.81 110.806 68.61 110.926 68.42C111.036 68.26 111.196 68.14 111.416 68.04C111.626 67.94 111.846 67.89 112.096 67.89C112.196 67.89 112.296 67.89 112.386 67.91C112.766 67.97 113.136 68.13 113.446 68.39L113.016 68.89C112.626 68.59 112.286 68.54 112.126 68.54C111.966 68.54 111.826 68.57 111.706 68.63C111.536 68.72 111.416 68.87 111.416 69.03C111.416 69.29 111.626 69.43 112.156 69.54C112.156 69.54 112.876 69.7 113.076 69.81C113.306 69.93 113.396 70.03 113.486 70.15C113.606 70.32 113.666 70.53 113.666 70.76H113.676Z" fill="white"/>
<path d="M119.976 71.16C119.906 71.25 119.836 71.33 119.756 71.41C119.366 71.8 118.846 72.01 118.296 72.01C117.746 72.01 117.216 71.8 116.826 71.41C116.436 71.01 116.216 70.49 116.216 69.94C116.216 69.39 116.436 68.87 116.826 68.47C117.216 68.08 117.746 67.87 118.296 67.87C118.846 67.87 119.366 68.08 119.756 68.47C119.836 68.55 119.906 68.63 119.966 68.71L119.366 69.15C119.126 68.82 118.736 68.6 118.296 68.6C117.556 68.6 116.966 69.21 116.966 69.94C116.966 70.67 117.566 71.28 118.296 71.28C118.736 71.28 119.126 71.06 119.366 70.72L119.976 71.16Z" fill="white"/>
<path d="M124.536 69.95C124.536 70.5 124.316 71.02 123.926 71.42C123.536 71.81 123.016 72.03 122.466 72.03C121.916 72.03 121.396 71.81 120.996 71.42C120.606 71.02 120.386 70.5 120.386 69.95C120.386 69.4 120.606 68.88 120.996 68.48C121.396 68.09 121.916 67.88 122.466 67.88C123.016 67.88 123.536 68.09 123.926 68.48C124.326 68.88 124.536 69.4 124.536 69.95ZM123.786 69.95C123.786 69.21 123.186 68.63 122.456 68.63C121.726 68.63 121.126 69.22 121.126 69.95C121.126 70.68 121.726 71.28 122.456 71.28C123.186 71.28 123.786 70.68 123.786 69.95Z" fill="white"/>
<path d="M129.106 69.8V71.93H128.366V69.8C128.366 69.15 127.846 68.62 127.196 68.62C126.546 68.62 126.026 69.16 126.026 69.8V71.93H125.286V67.97H126.026V68.35C126.366 68.09 126.766 67.89 127.196 67.89C127.706 67.89 128.186 68.08 128.556 68.44C128.906 68.8 129.106 69.28 129.106 69.8Z" fill="white"/>
<path d="M130.236 70.61V68.67H129.646V67.96H130.236V66.43H130.976V67.96H132.197V68.67H130.976V70.59C130.976 70.91 131.257 71.21 131.567 71.21H132.236L132.427 71.92H131.557C130.827 71.92 130.246 71.34 130.246 70.61H130.236Z" fill="white"/>
<path d="M133.126 66.83C133.126 66.56 133.346 66.35 133.616 66.35C133.886 66.35 134.096 66.57 134.096 66.83C134.096 67.09 133.876 67.32 133.616 67.32C133.356 67.32 133.126 67.1 133.126 66.83ZM133.246 67.97H133.986V71.93H133.246V67.97Z" fill="white"/>
<path d="M138.956 67.97V72.12C138.956 72.67 138.736 73.2 138.346 73.59C137.956 73.98 137.436 74.2 136.886 74.2C136.476 74.2 136.086 74.09 135.766 73.9C135.636 73.82 135.506 73.72 135.396 73.61L135.956 73.12C136.206 73.32 136.566 73.46 136.886 73.47C137.626 73.47 138.216 72.86 138.216 72.12V71.47C137.846 71.78 137.376 72.01 136.886 72.01C136.336 72.01 135.816 71.8 135.416 71.41C135.026 71.01 134.806 70.49 134.806 69.94C134.806 69.39 135.026 68.87 135.416 68.47C135.816 68.08 136.336 67.87 136.886 67.87C137.376 67.87 137.846 68.1 138.216 68.41V67.95H138.956V67.97ZM138.216 69.95C138.216 69.21 137.616 68.61 136.886 68.61C136.156 68.61 135.556 69.22 135.556 69.95C135.556 70.68 136.156 71.29 136.886 71.29C137.616 71.29 138.216 70.68 138.216 69.95Z" fill="white"/>
<path d="M143.786 69.95C143.786 70.5 143.566 71.02 143.176 71.42C142.786 71.81 142.266 72.03 141.716 72.03C141.166 72.03 140.646 71.81 140.246 71.42C139.856 71.02 139.636 70.5 139.636 69.95C139.636 69.4 139.856 68.88 140.246 68.48C140.646 68.09 141.166 67.88 141.716 67.88C142.266 67.88 142.786 68.09 143.176 68.48C143.576 68.88 143.786 69.4 143.786 69.95ZM143.046 69.95C143.046 69.21 142.446 68.63 141.716 68.63C140.986 68.63 140.386 69.22 140.386 69.95C140.386 70.68 140.986 71.28 141.716 71.28C142.446 71.28 143.046 70.68 143.046 69.95Z" fill="white"/>
</svg>
