<?xml version="1.0" encoding="UTF-8"?>
<svg id="Capa_2" data-name="Capa 2" xmlns="http://www.w3.org/2000/svg" viewBox="0 0 557.5 261.8">
  <defs>
    <style>
      .cls-1 {
        fill: #f8f156;
      }

      .cls-2 {
        fill: #7f7f7f;
      }
    </style>
  </defs>
  <g id="Capa_1-2" data-name="Capa 1">
    <g>
      <path class="cls-2" d="M27.8,242.1V22.2h18.5l5.3,4.9v209.8l-5.3,5.3h-18.5M53.4,2.5H6.3v259.2h47.2l19.6-19.6V22.2L53.4,2.5"/>
      <polyline class="cls-2" points="162.5 2.5 140.6 2.5 140.6 27.8 128.9 39.5 117.2 27.8 117.2 2.5 95.7 2.5 95.7 32.7 117.9 55.4 117.9 242.1 139.8 261.8 139.8 55.4 162.5 32.7 162.5 2.5"/>
      <polyline class="cls-2" points="222.5 2.5 222.5 33.9 191.1 2.5 177.6 16.1 177.6 242.1 199.1 261.8 199.1 36.9 222.5 60.3 222.5 261.8 244.3 242.1 244.3 22.2 222.5 2.5"/>
      <path class="cls-2" d="M288.5,48.6v-6.8l11.7-11.7,11.7,11.7v6.8h-23.4M300.2,3.3l-33.2,33.6v205.3l21.5,19.6V68.2h23.4v193.6l21.9-19.6V36.9L300.2,3.3"/>
      <polyline class="cls-2" points="454.5 2.5 412.3 41.4 370 2.5 356.4 15 356.4 242.1 377.9 261.8 377.9 33.5 401.3 57.2 401.3 261.8 423.2 261.8 423.2 57.2 446.6 33.5 446.6 261.8 468.1 242.1 468.1 15 454.5 2.5"/>
      <path class="cls-2" d="M517.1,242.1l-4.9-4.9V27.1l4.9-4.9h13.6l4.9,4.9v210.2l-4.9,4.9h-13.6M537.9,2.5h-27.5l-19.6,19.6v220l19.6,19.6h27.5l19.6-19.6V22.2l-19.6-19.6"/>
      <path class="cls-1" d="M47.2,259.2H0V0h47.2l19.6,19.6v220l-19.6,19.6ZM45.3,24.5l-5.3-4.9h-18.5v220h18.5l5.3-5.3V24.5Z"/>
      <polygon class="cls-1" points="89.4 30.2 89.4 0 110.9 0 110.9 25.3 122.6 37 134.3 25.3 134.3 0 156.2 0 156.2 30.2 133.6 52.8 133.6 259.2 111.7 239.6 111.7 52.8 89.4 30.2"/>
      <polygon class="cls-1" points="216.2 0 238.1 19.6 238.1 239.6 216.2 259.2 216.2 57.7 192.8 34.3 192.8 259.2 171.3 239.6 171.3 13.6 184.9 0 216.2 31.3 216.2 0"/>
      <path class="cls-1" d="M282.2,259.2l-21.5-19.6V34.3L293.9.8l33.6,33.6v205.3l-21.9,19.6V65.7h-23.4v193.6ZM282.2,46h23.4v-6.8l-11.7-11.7-11.7,11.7v6.8Z"/>
      <polygon class="cls-1" points="448.3 0 461.8 12.5 461.8 239.6 440.3 259.2 440.3 30.9 416.9 54.7 416.9 259.2 395.1 259.2 395.1 54.7 371.7 30.9 371.7 259.2 350.2 239.6 350.2 12.5 363.7 0 406 38.9 448.3 0"/>
      <path class="cls-1" d="M531.6,0l19.6,19.6v220l-19.6,19.6h-27.5l-19.6-19.6V19.6L504.1,0h27.5ZM529.4,24.5l-4.9-4.9h-13.6l-4.9,4.9v210.2l4.9,4.9h13.6l4.9-4.9V24.5Z"/>
    </g>
  </g>
</svg>