<?xml version="1.0" encoding="UTF-8"?>
<svg xmlns="http://www.w3.org/2000/svg" xmlns:xlink="http://www.w3.org/1999/xlink" viewBox="0 0 141.73 122.74">
  <defs>
    <style>
      .cls-1 {
        filter: url(#drop-shadow-3);
      }

      .cls-2 {
        fill: #c2544e;
      }

      .cls-3 {
        isolation: isolate;
      }

      .cls-4 {
        mix-blend-mode: multiply;
      }

      .cls-5 {
        stroke-width: .25px;
      }

      .cls-5, .cls-6 {
        stroke: #211915;
        stroke-miterlimit: 10;
      }

      .cls-5, .cls-6, .cls-7 {
        fill: #211915;
      }

      .cls-6 {
        stroke-width: .5px;
      }

      .cls-8, .cls-9 {
        fill: #001628;
      }

      .cls-10 {
        fill: url(#Degradado_sin_nombre_81);
        opacity: .1;
      }

      .cls-10, .cls-11 {
        mix-blend-mode: screen;
      }

      .cls-11 {
        fill: url(#Degradado_sin_nombre_60);
        opacity: .2;
      }

      .cls-9 {
        opacity: .9;
      }
    </style>
    <linearGradient id="Degradado_sin_nombre_60" data-name="Degradado sin nombre 60" x1="119.18" y1="109.68" x2="22.56" y2="13.06" gradientUnits="userSpaceOnUse">
      <stop offset="0" stop-color="#c2544e"/>
      <stop offset="1" stop-color="#500714"/>
    </linearGradient>
    <linearGradient id="Degradado_sin_nombre_81" data-name="Degradado sin nombre 81" x1="5.99" y1="61.37" x2="135.74" y2="61.37" gradientUnits="userSpaceOnUse">
      <stop offset="0" stop-color="#500714"/>
      <stop offset="1" stop-color="#c2544e"/>
    </linearGradient>
    <filter id="drop-shadow-3" x="40.42" y="110.01" width="59.99" height="5.66" filterUnits="userSpaceOnUse">
      <feOffset dx=".57" dy=".57"/>
      <feGaussianBlur result="blur" stdDeviation="0"/>
      <feFlood flood-color="#211915" flood-opacity=".75"/>
      <feComposite in2="blur" operator="in"/>
      <feComposite in="SourceGraphic"/>
    </filter>
  </defs>
  <g class="cls-3">
    <g id="Capa_2" data-name="Capa 2">
      <polygon class="cls-8" points="106.3 0 35.43 0 0 61.37 35.43 122.74 106.3 122.74 141.73 61.37 106.3 0"/>
      <polygon class="cls-11" points="106.23 .12 35.5 .12 .14 61.37 35.5 122.63 106.23 122.63 141.6 61.37 106.23 .12"/>
      <polygon class="cls-10" points="103.3 5.19 38.43 5.19 5.99 61.37 38.43 117.56 103.3 117.56 135.74 61.37 103.3 5.19"/>
      <polygon class="cls-9" points="95.17 19.27 46.56 19.27 22.25 61.37 46.56 103.47 95.17 103.47 119.48 61.37 95.17 19.27"/>
    </g>
    <g id="Capa_1" data-name="Capa 1">
      <g class="cls-1">
        <path class="cls-2" d="M40.42,112.26c0-.3.06-.59.18-.87.12-.28.28-.52.48-.72s.44-.36.72-.48c.28-.12.57-.18.87-.18h4.79v.66h-4.79c-.44,0-.81.16-1.13.47-.31.31-.47.69-.47,1.13v.58c0,.44.16.81.47,1.13s.69.47,1.13.47h4.79v.66h-4.79c-.3,0-.59-.06-.87-.18-.28-.12-.52-.28-.72-.48-.2-.2-.36-.44-.48-.72-.12-.28-.18-.57-.18-.87v-.58Z"/>
        <path class="cls-2" d="M54.07,110.01c.3,0,.59.06.87.18.28.12.52.28.72.48.2.2.36.44.48.72.12.28.18.57.18.87v.58c0,.3-.06.59-.18.87-.12.28-.28.52-.48.72s-.44.36-.72.48c-.28.12-.57.18-.87.18h-3.2c-.3,0-.59-.06-.87-.18-.28-.12-.52-.28-.72-.48-.2-.2-.36-.44-.48-.72-.12-.28-.18-.57-.18-.87v-.58c0-.3.06-.59.18-.87.12-.28.28-.52.48-.72s.44-.36.72-.48c.28-.12.57-.18.87-.18h3.2ZM54.07,114.44c.44,0,.81-.16,1.13-.47.31-.31.47-.69.47-1.13v-.58c0-.44-.16-.82-.47-1.13-.31-.31-.69-.47-1.13-.47h-3.2c-.44,0-.81.16-1.13.47-.31.31-.47.69-.47,1.13v.58c0,.44.16.81.47,1.13s.69.47,1.13.47h3.2Z"/>
        <path class="cls-2" d="M64.12,115.1c-.31,0-.58-.11-.81-.34l-4.17-3.95c-.1-.1-.22-.16-.36-.16-.06,0-.12.01-.16.04-.13.05-.19.14-.19.28v4.12h-.66v-4.12c0-.2.05-.38.17-.53.1-.16.24-.28.44-.36.13-.05.27-.08.41-.08.32,0,.59.11.81.34l4.17,3.94h0c.09.11.2.16.34.16.06,0,.11,0,.16-.03.13-.05.19-.14.19-.29v-4.11h.66v4.11c0,.21-.05.39-.16.54-.1.16-.24.28-.43.36-.14.05-.27.08-.41.08Z"/>
        <path class="cls-2" d="M66.58,112.26c0-.3.06-.59.18-.87.12-.28.28-.52.48-.72s.44-.36.72-.48c.28-.12.57-.18.87-.18h4.79v.66h-4.79c-.44,0-.81.16-1.13.47-.31.31-.47.69-.47,1.13v.58c0,.44.16.81.47,1.13s.69.47,1.13.47h4.79v.66h-4.79c-.3,0-.59-.06-.87-.18-.28-.12-.52-.28-.72-.48-.2-.2-.36-.44-.48-.72-.12-.28-.18-.57-.18-.87v-.58Z"/>
        <path class="cls-2" d="M75.06,110.66v-.66h7.05v.66h-7.05ZM75.06,112.22h5.63v.66h-4.98v.69c0,.24.08.45.25.62.17.17.37.26.61.26h5.52v.66h-5.52c-.42,0-.77-.15-1.07-.45-.3-.3-.45-.66-.45-1.08v-1.34Z"/>
        <path class="cls-2" d="M85.81,115.1c-.3,0-.59-.06-.87-.18-.28-.12-.52-.28-.72-.48-.2-.2-.36-.44-.48-.72-.12-.28-.18-.57-.18-.87v-.24h.66v.24c0,.44.16.81.47,1.13s.69.47,1.13.47h2.62c.44,0,.82-.16,1.13-.47.31-.31.47-.69.47-1.13v-2.84h.66v2.84c0,.3-.06.59-.18.87-.12.28-.28.52-.48.72-.2.2-.44.36-.72.48-.28.12-.57.18-.87.18h-2.62Z"/>
        <path class="cls-2" d="M97.6,110.01c.3,0,.59.06.87.18.28.12.52.28.72.48.2.2.36.44.48.72.12.28.18.57.18.87v.58c0,.3-.06.59-.18.87-.12.28-.28.52-.48.72s-.44.36-.72.48c-.28.12-.57.18-.87.18h-3.2c-.3,0-.59-.06-.87-.18-.28-.12-.52-.28-.72-.48-.2-.2-.36-.44-.48-.72-.12-.28-.18-.57-.18-.87v-.58c0-.3.06-.59.18-.87.12-.28.28-.52.48-.72s.44-.36.72-.48c.28-.12.57-.18.87-.18h3.2ZM97.6,114.44c.44,0,.81-.16,1.13-.47.31-.31.47-.69.47-1.13v-.58c0-.44-.16-.82-.47-1.13-.31-.31-.69-.47-1.13-.47h-3.2c-.44,0-.81.16-1.13.47-.31.31-.47.69-.47,1.13v.58c0,.44.16.81.47,1.13s.69.47,1.13.47h3.2Z"/>
      </g>
      <g>
        <g>
          <rect class="cls-7" x="97.93" y="104.96" width="1.23" height="1.23"/>
          <path class="cls-7" d="M99.54,106.57h-1.98v-1.98h1.98v1.98ZM98.3,105.82h.48v-.48h-.48v.48Z"/>
        </g>
        <g>
          <g>
            <path class="cls-7" d="M103.55,117.89l-.43-.25,32.4-56.12L103.19,5.52H38.53L6.2,61.52l6.64,11.51,12.47-.02.07.12c3.4,5.92,6.35,11.17,9.2,16.26,2.85,5.08,5.8,10.34,9.2,16.25l-.43.25c-3.4-5.92-6.35-11.17-9.2-16.26-2.83-5.05-5.76-10.26-9.13-16.13l-12.47.02-6.93-12.01.07-.12L38.24,5.02h65.24l.07.12,32.55,56.37-.07.12-32.47,56.25Z"/>
            <path class="cls-7" d="M103.68,118.4l-1.08-.62.19-.32,32.29-55.94L102.97,5.89H38.74L6.63,61.52l6.43,11.13,12.46-.02.18.31c3.41,5.94,6.36,11.18,9.21,16.26,2.84,5.06,5.77,10.28,9.2,16.25l.19.32-1.08.62-.19-.33c-3.39-5.89-6.33-11.13-9.17-16.2l-.12-.22c-2.78-4.95-5.65-10.06-8.93-15.78l-12.47.02-7.15-12.38L38.02,4.65h65.67l.18.31,32.66,56.56-.18.31-32.66,56.57Z"/>
          </g>
          <path class="cls-7" d="M38.23,118.46l-.19-.33c-.84-1.45-3.53-6.11-4.37-7.56-.9-1.57-3.65-6.33-4.56-7.9.61.06,1.22.12,1.83.18.45.78,3.15,5.46,3.61,6.25.54.93,3.42,5.92,3.95,6.85l1.02,1.76-1.29.75Z"/>
          <g>
            <path class="cls-7" d="M132.59,61.77c-5.07,8.38-10.15,16.75-15.22,25.13.34.96.69,1.91,1.03,2.87-2.43,4.19-4.85,8.38-7.28,12.57.06.54.11,1.09.17,1.63,8.12-14.07,16.24-28.13,24.36-42.2-1.02,0-2.05,0-3.07,0Z"/>
            <path class="cls-7" d="M111.05,105.16l-.3-2.9.06-.11,7.19-12.42-1.03-2.87,15.42-25.46h3.93l-25.27,43.76ZM111.52,102.42l.04.36,23.46-40.63h-2.21l-15.02,24.79,1.03,2.87-.09.15-7.21,12.46Z"/>
          </g>
          <g>
            <polygon class="cls-7" points="128.52 49.86 119.63 49.86 96.59 10.37 97.02 10.12 119.92 49.36 128.52 49.36 128.52 49.86"/>
            <polygon class="cls-7" points="128.9 50.23 119.42 50.23 119.31 50.05 96.07 10.24 97.15 9.61 97.34 9.93 120.13 48.99 128.9 48.99 128.9 50.23"/>
          </g>
          <g>
            <rect class="cls-7" x="5.91" y="61.39" width="7.01" height=".25"/>
            <rect class="cls-7" x="5.53" y="61.01" width="7.76" height="1"/>
          </g>
          <g>
            <rect class="cls-7" x="41.04" y="12.09" width="12.17" height=".25"/>
            <rect class="cls-7" x="40.67" y="11.72" width="12.92" height="1"/>
          </g>
          <g>
            <rect class="cls-7" x="52.6" y="11.6" width="1.23" height="1.23"/>
            <path class="cls-7" d="M54.21,13.21h-1.98v-1.98h1.98v1.98ZM52.98,12.46h.48v-.48h-.48v.48Z"/>
          </g>
          <g>
            <polygon class="cls-7" points="43.36 105.88 43.36 105.63 98.55 105.45 98.55 105.7 43.36 105.88"/>
            <polygon class="cls-7" points="42.98 106.26 42.98 105.26 98.92 105.08 98.92 106.08 42.98 106.26"/>
          </g>
          <g>
            <rect class="cls-7" x="-1.52" y="36.62" width="56.97" height=".5" transform="translate(-18.45 41.74) rotate(-59.94)"/>
            <polygon class="cls-7" points="13.04 62.15 11.96 61.53 40.89 11.58 41.97 12.21 41.78 12.53 13.04 62.15"/>
          </g>
        </g>
        <g>
          <rect class="cls-7" x="38.39" y="117.51" width="65.11" height=".5"/>
          <rect class="cls-7" x="38.01" y="117.14" width="65.86" height="1.25"/>
        </g>
        <g>
          <path class="cls-7" d="M95.68,104.35h-49.53l-24.76-42.89,24.76-42.89h49.53l24.76,42.89-24.76,42.89ZM47.01,102.86h47.81l23.9-41.4-23.9-41.4h-47.81l-23.9,41.4,23.9,41.4Z"/>
          <path class="cls-7" d="M95.9,104.73h-49.96l-24.98-43.27,24.98-43.27h49.96l24.98,43.27-.11.19-24.87,43.08ZM46.37,103.98h49.09l24.55-42.52-24.55-42.52h-49.09l-24.55,42.52,24.55,42.52ZM95.04,103.24h-48.24l-24.12-41.78,24.12-41.78h48.24l24.12,41.78-.11.19-24.01,41.59ZM47.23,102.49h47.38l23.69-41.03-23.69-41.03h-47.38l-23.69,41.03,23.69,41.03Z"/>
        </g>
        <g>
          <path class="cls-7" d="M126.75,45.83h-6.17c-6.84-11.8-13.67-23.59-20.51-35.39h-40.9c-.98-1.67-1.95-3.34-2.93-5.01h47.19c7.77,13.47,15.55,26.93,23.32,40.4Z"/>
          <path class="cls-7" d="M127.4,46.21h-7.04l-20.51-35.39h-40.9l-3.37-5.76h48.06l23.76,41.15ZM120.79,45.46h5.31L103.21,5.81h-46.31l2.49,4.26h40.9l20.51,35.39Z"/>
        </g>
        <g>
          <g>
            <path class="cls-6" d="M21.93,78.61h-5.83c-.56-.98-1.14-1.96-1.7-2.95h5.83c.56.99,1.14,1.96,1.7,2.95Z"/>
            <path class="cls-6" d="M22.79,79.11h-6.98l-2.28-3.95h6.99l2.27,3.95ZM16.39,78.11h4.68l-1.12-1.95h-4.68l1.12,1.95Z"/>
          </g>
          <g>
            <path class="cls-6" d="M24.79,83.67h-5.83c-.56-.98-1.01-1.76-1.58-2.75h5.83c.56.99,1.01,1.76,1.58,2.75Z"/>
            <path class="cls-6" d="M25.65,84.17h-6.99l-2.15-3.75h6.99l2.15,3.75ZM19.24,83.17h4.68l-1-1.75h-4.68l1,1.75Z"/>
          </g>
          <g>
            <path class="cls-6" d="M27.75,88.8h-5.83c-.37-.65-.93-1.64-1.51-2.63h5.83c.57.99,1.14,1.98,1.51,2.63Z"/>
            <path class="cls-6" d="M28.6,89.3h-6.97l-.14-.25c-.37-.65-.93-1.64-1.5-2.63l-.43-.75h6.98l.46.79c.46.8.9,1.56,1.2,2.1l.41.74ZM22.21,88.3h4.68c-.23-.41-.5-.87-.77-1.34l-.17-.29h-4.67c.35.61.67,1.18.93,1.63Z"/>
          </g>
          <g>
            <path class="cls-6" d="M30.61,93.71h-5.83c-.16-.27-.73-1.26-1.3-2.25h5.83c.56.99,1.14,1.96,1.3,2.25Z"/>
            <path class="cls-6" d="M31.47,94.21h-6.98l-1.87-3.25h6.99l1,1.73c.21.36.37.64.44.77l.42.75ZM25.06,93.21h4.68s0,0,0-.01l-.71-1.23h-4.68l.72,1.25Z"/>
          </g>
          <path class="cls-6" d="M34.3,99.14h-6.98l-.59-1c-.26-.45-.45-.76-.84-1.44l-.43-.75h6.98l.14.25c.28.49.46.79.64,1.09.18.3.36.61.65,1.1l.43.75ZM27.82,98.49h5.19l-1.25-1.96h-5.19l1.25,1.96Z"/>
        </g>
      </g>
      <g>
        <rect class="cls-2" x="98.09" y="105.25" width="1.24" height="1.24"/>
        <g>
          <path class="cls-2" d="M103.74,118.25l-.43-.25,32.59-56.45L103.38,5.23H38.34L5.82,61.55l6.68,11.58,12.54-.02.07.12c3.42,5.95,6.38,11.23,9.25,16.34,2.87,5.12,5.84,10.41,9.26,16.36l-.43.25c-3.42-5.96-6.39-11.25-9.26-16.36-2.85-5.07-5.79-10.32-9.18-16.21l-12.54.02-6.97-12.08.07-.12L38.05,4.73h65.62l.07.12,32.74,56.7-.07.12-32.66,56.57Z"/>
          <path class="cls-2" d="M38.18,118.31c-1.46-2.53-2.92-5.07-4.4-7.61-1.56-2.68-3.11-5.36-4.67-8.03l.92.04c2.93,5.08,5.86,10.15,8.79,15.22l-.65.38Z"/>
          <path class="cls-2" d="M132.95,61.81c-5.1,8.42-10.21,16.85-15.31,25.27.35.96.69,1.92,1.04,2.89-2.44,4.21-4.88,8.43-7.32,12.64.06.55.11,1.09.17,1.64,8.17-14.15,16.34-28.3,24.5-42.44-1.03,0-2.06,0-3.09,0Z"/>
          <polygon class="cls-2" points="128.86 49.83 119.92 49.83 119.85 49.7 96.74 10.11 97.17 9.86 120.21 49.33 128.86 49.33 128.86 49.83"/>
          <rect class="cls-2" x="5.53" y="61.43" width="7.05" height=".25"/>
          <rect class="cls-2" x="40.87" y="11.84" width="12.25" height=".25"/>
          <rect class="cls-2" x="52.49" y="11.35" width="1.24" height="1.24"/>
          <rect class="cls-2" x="43.2" y="105.84" width="55.51" height=".25" transform="translate(-.41 .28)"/>
          <rect class="cls-2" x="-1.94" y="36.51" width="57.3" height=".5" transform="translate(-18.49 41.42) rotate(-59.88)"/>
        </g>
        <rect class="cls-2" x="38.2" y="117.88" width="65.49" height=".5"/>
        <path class="cls-2" d="M95.8,104.75h-49.88l-24.94-43.19,24.94-43.19h49.88l24.94,43.19-24.94,43.19ZM46.79,103.25h48.14l24.07-41.69-24.07-41.69h-48.14l-24.07,41.69,24.07,41.69Z"/>
        <path class="cls-2" d="M126.84,45.38h-6.17c-6.84-11.8-13.67-23.59-20.51-35.39h-40.9c-.98-1.67-1.95-3.34-2.93-5.01h47.19c7.77,13.47,15.55,26.93,23.32,40.4Z"/>
        <g>
          <g>
            <path class="cls-2" d="M21.5,79.01h-5.83c-.56-.98-1.14-1.96-1.7-2.95h5.83c.56.99,1.14,1.96,1.7,2.95Z"/>
            <path class="cls-2" d="M22.36,79.51h-6.99l-2.28-3.95h6.99l2.27,3.95ZM15.95,78.51h4.68l-1.12-1.95h-4.68l1.12,1.95Z"/>
          </g>
          <path class="cls-2" d="M33.87,99.57h-6.98l-.59-1c-.26-.45-.45-.76-.84-1.44l-.43-.75h6.98l.14.25c.28.49.46.79.64,1.09.18.3.36.61.65,1.1l.43.75ZM27.57,98.74h4.74l-1.14-1.79h-4.74l1.14,1.79Z"/>
          <g>
            <path class="cls-2" d="M24.35,84.07h-5.83c-.56-.98-1.01-1.76-1.58-2.75h5.83c.56.99,1.01,1.76,1.58,2.75Z"/>
            <path class="cls-2" d="M25.22,84.57h-6.99l-2.15-3.75h6.99l2.15,3.75ZM18.81,83.57h4.68l-1-1.75h-4.68l1,1.75Z"/>
          </g>
          <g>
            <path class="cls-2" d="M27.31,89.2h-5.83c-.37-.65-.93-1.64-1.51-2.63h5.83c.57.99,1.14,1.98,1.51,2.63Z"/>
            <path class="cls-2" d="M28.16,89.7h-6.97l-.24-.42c-.37-.64-.89-1.55-1.41-2.46l-.43-.75h6.98l.44.77c.47.81.91,1.58,1.21,2.12l.41.74ZM21.78,88.7h4.68c-.24-.41-.5-.88-.78-1.36l-.16-.27h-4.67c.35.61.67,1.18.93,1.63Z"/>
          </g>
          <g>
            <path class="cls-2" d="M30.17,94.11h-5.83c-.16-.27-.73-1.26-1.3-2.25h5.83c.56.99,1.14,1.96,1.3,2.25Z"/>
            <path class="cls-2" d="M31.03,94.61h-6.98l-1.87-3.25h6.99l.98,1.7c.22.37.39.67.46.8l.42.75ZM24.63,93.61h4.68l-.02-.04-.69-1.2h-4.68l.72,1.25Z"/>
          </g>
        </g>
      </g>
    </g>
    <g id="Capa_5" data-name="Capa 5">
      <g class="cls-4">
        <path class="cls-5" d="M71.05,91.23c-.62-2.6-1.23-5.2-1.85-7.81.38.26,1.07.62,1.95.59.77-.03,1.38-.36,1.75-.61-.61,2.61-1.23,5.22-1.84,7.83Z"/>
        <path class="cls-5" d="M37.94,79.19l2.65-7.58c.19.42.57,1.1,1.33,1.54.67.39,1.36.44,1.8.43-1.92,1.87-3.85,3.74-5.77,5.61Z"/>
        <path class="cls-5" d="M71.04,31.52l1.85,7.81c-.38-.26-1.07-.62-1.95-.59-.77.03-1.38.36-1.75.61.61-2.61,1.23-5.22,1.84-7.83Z"/>
        <path class="cls-5" d="M104.08,43.9l-2.65,7.58c-.19-.42-.57-1.1-1.33-1.54-.67-.39-1.36-.44-1.8-.43,1.92-1.87,3.85-3.74,5.77-5.61Z"/>
        <path class="cls-6" d="M66.12,70.67c-2.99-1.72-4.85-4.93-4.85-8.38h.69c0,3.2,1.73,6.18,4.51,7.78l-.34.6ZM75.8,70.66l-.34-.6c2.77-1.61,4.49-4.59,4.49-7.79l.69-.04v.04c0,3.44-1.85,6.66-4.84,8.39ZM66.43,54.5l-.35-.6c2.92-1.7,6.75-1.72,9.68-.03l-.34.6c-2.73-1.56-6.28-1.55-8.99.03Z"/>
        <path class="cls-6" d="M70.54,48.93c-1.18.16-3.54.51-6.24,1.88-2.79,1.42-4.53,3.22-5.2,3.97-1.12,1.25-1.88,2.45-2.38,3.37.67-2.97,1.34-5.94,2.01-8.91-1.41-1.29-2.81-2.59-4.22-3.88,4.15-1.6,9.65-3.03,16.12-2.91,21.59.4,35.32,17.78,37.61,20.79-5.24-4.8-10.22-7.67-13.63-9.35-9.91-4.87-18.89-5.67-24.07-4.96Z"/>
        <path class="cls-6" d="M71.2,75.51c1.18-.16,3.54-.51,6.24-1.88,2.79-1.42,4.53-3.22,5.2-3.97,1.12-1.25,1.88-2.45,2.38-3.37-.67,2.97-1.34,5.94-2.01,8.91,1.41,1.29,2.81,2.59,4.22,3.88-4.15,1.6-9.65,3.03-16.12,2.91-21.59-.4-35.32-17.78-37.61-20.79,5.24,4.8,10.22,7.67,13.63,9.35,9.91,4.87,18.89,5.67,24.07,4.96Z"/>
        <path class="cls-6" d="M70.94,73.96c-2.46,0-4.81-.76-6.81-2.2l.27-.37c1.92,1.38,4.18,2.11,6.54,2.11.3,0,.62-.01.93-.04,1.19-.1,2.34-.38,3.42-.83l.18.42c-1.13.47-2.33.76-3.56.87-.33.03-.65.04-.97.04ZM77.86,71.7l-.27-.37c2.88-2.11,4.59-5.49,4.59-9.04,0-.3-.01-.62-.04-.93l.23-.06h.23s-.23,0-.23,0h.23c.03.35.04.68.04.99,0,3.7-1.79,7.22-4.78,9.41ZM62.11,69.91c-1.63-1.88-2.59-4.19-2.8-6.68-.03-.33-.04-.65-.04-.97,0-1.2.18-2.39.55-3.54l.44.14c-.35,1.1-.53,2.24-.53,3.4,0,.3.01.62.04.93.2,2.39,1.13,4.61,2.69,6.41l-.35.3ZM81.61,58.73c-1.22-3.68-4.33-6.51-8.1-7.39l.1-.45c3.93.92,7.17,3.86,8.44,7.69l-.44.14ZM61.35,56.47l-.39-.24c1.94-3.2,5.32-5.29,9.04-5.6.3-.02.59-.04.88-.04v.46c-.28,0-.56.01-.85.04-3.58.29-6.82,2.3-8.69,5.38Z"/>
        <path class="cls-6" d="M70.96,55.78l-3.71,7,3.71,7.53,3.71-7.53-3.71-7ZM71.41,57.48c.77,1.78,1.54,3.55,2.31,5.33-.58,1.14-1.16,2.28-1.74,3.42l.38-3.51-.95-5.24Z"/>
      </g>
      <g>
        <path class="cls-2" d="M71.05,91.23l-1.85-7.81c.38.26,1.07.62,1.95.59.77-.03,1.38-.36,1.75-.61-.61,2.61-1.23,5.22-1.84,7.83Z"/>
        <path class="cls-2" d="M38.36,79.19l2.65-7.58c.19.42.57,1.1,1.33,1.54.67.39,1.36.44,1.8.43-1.92,1.87-3.85,3.74-5.77,5.61Z"/>
        <path class="cls-2" d="M71.04,31.52c.62,2.6,1.23,5.2,1.85,7.81-.38-.26-1.07-.62-1.95-.59-.77.03-1.38.36-1.75.61.61-2.61,1.23-5.22,1.84-7.83Z"/>
        <path class="cls-2" d="M103.73,43.55c-.88,2.53-1.76,5.05-2.65,7.58-.19-.42-.57-1.1-1.33-1.54-.67-.39-1.36-.44-1.8-.43,1.92-1.87,3.85-3.74,5.77-5.61Z"/>
        <path class="cls-2" d="M66.12,70.67c-2.99-1.72-4.85-4.93-4.85-8.38h.69c0,3.2,1.73,6.18,4.51,7.78l-.34.6ZM75.8,70.66l-.34-.6c2.77-1.61,4.49-4.59,4.49-7.79l.69-.04v.04c0,3.44-1.85,6.66-4.84,8.39ZM66.43,54.5l-.35-.6c2.92-1.7,6.75-1.72,9.68-.03l-.34.6c-2.73-1.56-6.28-1.55-8.99.03Z"/>
        <path class="cls-2" d="M70.54,48.93c-1.18.16-3.54.51-6.24,1.88-2.79,1.42-4.53,3.22-5.2,3.97-1.12,1.25-1.88,2.45-2.38,3.37.67-2.97,1.34-5.94,2.01-8.91-1.41-1.29-2.81-2.59-4.22-3.88,4.15-1.6,9.65-3.03,16.12-2.91,21.59.4,35.32,17.78,37.61,20.79-5.24-4.8-10.22-7.67-13.63-9.35-9.91-4.87-18.89-5.67-24.07-4.96Z"/>
        <path class="cls-2" d="M71.2,75.51c1.18-.16,3.54-.51,6.24-1.88,2.79-1.42,4.53-3.22,5.2-3.97,1.12-1.25,1.88-2.45,2.38-3.37-.67,2.97-1.34,5.94-2.01,8.91,1.41,1.29,2.81,2.59,4.22,3.88-4.15,1.6-9.65,3.03-16.12,2.91-21.59-.4-35.32-17.78-37.61-20.79,5.24,4.8,10.22,7.67,13.63,9.35,9.91,4.87,18.89,5.67,24.07,4.96Z"/>
        <path class="cls-2" d="M70.94,73.96c-2.46,0-4.81-.76-6.81-2.2l.27-.37c1.92,1.38,4.18,2.11,6.54,2.11.3,0,.62-.01.93-.04,1.19-.1,2.34-.38,3.42-.83l.18.42c-1.13.47-2.33.76-3.56.87-.33.03-.65.04-.97.04ZM77.86,71.7l-.27-.37c2.88-2.11,4.59-5.49,4.59-9.04,0-.3-.01-.62-.04-.93l.23-.06h.23s-.23,0-.23,0h.23c.03.35.04.68.04.99,0,3.7-1.79,7.22-4.78,9.41ZM62.11,69.91c-1.63-1.88-2.59-4.19-2.8-6.68-.03-.33-.04-.65-.04-.97,0-1.2.18-2.39.55-3.54l.44.14c-.35,1.1-.53,2.24-.53,3.4,0,.3.01.62.04.93.2,2.39,1.13,4.61,2.69,6.41l-.35.3ZM81.61,58.73c-1.22-3.68-4.33-6.51-8.1-7.39l.1-.45c3.93.92,7.17,3.86,8.44,7.69l-.44.14ZM61.35,56.47l-.39-.24c1.94-3.2,5.32-5.29,9.04-5.6.3-.02.59-.04.88-.04v.46c-.28,0-.56.01-.85.04-3.58.29-6.82,2.3-8.69,5.38Z"/>
        <path class="cls-2" d="M70.96,55.78l-3.71,7,3.71,7.53,3.71-7.53-3.71-7ZM71.41,57.48c.77,1.78,1.54,3.55,2.31,5.33-.58,1.14-1.16,2.28-1.74,3.42l.38-3.51-.95-5.24Z"/>
      </g>
    </g>
  </g>
</svg>